<?xml version="1.0" standalone="no"?>
<!DOCTYPE svg PUBLIC "-//W3C//DTD SVG 20010904//EN"
 "http://www.w3.org/TR/2001/REC-SVG-20010904/DTD/svg10.dtd">
<svg version="1.0" xmlns="http://www.w3.org/2000/svg"
 width="200.000000pt" height="200.000000pt" viewBox="0 0 200.000000 200.000000"
 preserveAspectRatio="xMidYMid meet">

<g transform="translate(0.000000,200.000000) scale(0.100000,-0.100000)"
fill="#000000" stroke="none">
<path d="M954 1955 c-19 -15 -19 -15 1 -8 18 6 19 5 5 -13 -14 -18 -14 -18 2
-5 10 7 15 17 12 22 -3 5 9 9 26 9 18 0 29 -4 25 -10 -3 -5 0 -7 8 -4 11 4 14
-4 12 -38 -2 -43 -2 -43 10 -13 11 25 13 27 18 10 4 -17 5 -18 6 -2 2 27 -44
67 -77 67 -15 0 -37 -7 -48 -15z"/>
<path d="M930 1884 c0 -6 -27 -15 -61 -18 -181 -21 -361 -116 -506 -269 -400
-421 -277 -1129 242 -1387 141 -71 230 -92 385 -93 98 0 143 5 209 22 377 99
635 416 658 806 14 250 -76 490 -252 670 -129 131 -284 213 -468 248 -65 12
-78 12 -88 1 -19 -23 -85 -18 -103 8 -9 12 -16 18 -16 12z m84 -99 c8 -71 24
-104 53 -111 33 -9 50 0 68 35 12 25 13 34 3 51 -10 16 -10 22 4 36 32 32 75
-11 45 -44 -13 -14 -18 -53 -23 -179 l-7 -162 -41 -17 c-69 -27 -143 -28 -206
-2 l-55 23 -7 164 c-6 134 -10 165 -24 175 -22 16 -14 50 12 54 30 4 49 -21
33 -45 -27 -43 47 -115 86 -83 18 15 35 73 35 123 0 56 16 44 24 -18z m-323
-39 c-232 -95 -418 -303 -483 -543 -16 -59 -21 -109 -22 -203 0 -132 11 -196
58 -312 140 -345 516 -551 886 -484 299 54 540 270 632 566 20 65 23 96 23
230 0 149 -1 158 -33 250 -76 218 -218 378 -426 476 -42 20 -74 39 -71 42 12
12 194 -90 259 -145 126 -105 225 -261 268 -421 32 -118 29 -307 -6 -425 -44
-147 -104 -249 -208 -355 -294 -298 -771 -325 -1096 -61 -127 103 -234 268
-279 429 -24 90 -25 319 0 410 63 237 244 450 465 546 42 19 86 34 97 34 11 0
-18 -16 -64 -34z m179 -358 l40 -23 0 -70 c0 -38 -3 -127 -7 -197 l-6 -127
-25 19 c-66 52 -163 1 -177 -92 -18 -116 73 -200 166 -154 39 20 39 20 39 1 0
-8 8 -15 18 -15 17 0 20 13 25 128 4 70 7 188 7 263 0 75 3 157 6 183 l7 46
40 0 40 0 -6 -310 -7 -310 25 0 c16 0 25 6 25 16 0 14 2 14 22 0 35 -25 110
-21 141 8 57 53 56 166 -3 219 -39 35 -102 38 -137 5 l-23 -21 1 129 c1 71 4
162 8 202 l6 73 41 19 42 18 48 -28 c101 -57 182 -172 204 -290 24 -124 0
-220 -70 -285 l-32 -30 7 60 c4 41 1 81 -9 125 -20 83 -20 133 0 171 8 17 13
33 10 36 -2 3 -12 -10 -22 -29 -21 -40 -21 -108 0 -197 11 -49 13 -76 5 -118
-8 -40 -7 -68 2 -104 12 -45 11 -50 -8 -71 -21 -22 -24 -40 -41 -188 l-7 -65
-62 -8 c-77 -11 -82 -23 -10 -22 49 0 52 -2 55 -26 4 -35 -15 -48 -76 -52
l-52 -4 -2 86 c-1 47 -3 69 -5 49 l-4 -37 -107 -3 -107 -3 -3 -48 c-5 -80 -22
-52 -24 41 -1 48 -3 70 -5 48 l-4 -39 -72 7 c-39 4 -72 8 -74 10 -3 3 -22 126
-30 196 -3 25 -14 54 -24 66 -17 18 -18 25 -8 53 7 21 9 61 6 106 -5 49 -1 96
9 146 17 81 14 159 -6 184 -20 24 -22 12 -3 -25 15 -32 15 -41 -1 -142 -12
-69 -16 -124 -11 -155 l7 -48 -32 30 c-53 50 -70 94 -70 183 0 141 38 241 124
328 41 40 129 100 154 104 2 0 21 -10 42 -22z m-3 -442 c24 -21 27 -30 26 -82
-1 -50 -5 -62 -28 -81 -34 -30 -67 -29 -102 1 -24 21 -28 31 -28 79 0 45 5 60
24 81 31 33 71 34 108 2z m353 -11 c34 -36 34 -114 0 -150 -33 -35 -91 -35
-119 1 -34 44 -21 150 21 167 34 14 75 6 98 -18z m-390 -582 c0 -5 -17 -8 -37
-8 -29 0 -38 -4 -41 -19 -5 -25 9 -37 46 -38 17 -1 29 -5 25 -11 -13 -21 -103
17 -103 44 0 20 35 39 71 39 21 0 39 -3 39 -7z m140 -38 c0 -32 3 -35 29 -35
35 0 55 22 46 50 -5 14 -2 20 9 20 12 0 16 -10 16 -38 l0 -39 -51 -2 c-28 -1
-58 4 -65 10 -19 16 -18 69 1 69 10 0 15 -11 15 -35z"/>
<path d="M980 1587 c-14 -7 -26 -23 -28 -35 -4 -24 13 -52 30 -52 5 0 2 7 -6
16 -32 32 -8 68 41 62 22 -2 29 -9 31 -30 3 -21 -3 -30 -25 -42 -15 -8 -24
-15 -20 -16 16 0 47 21 57 40 9 16 6 25 -14 45 -29 29 -32 29 -66 12z"/>
<path d="M933 658 l-22 -22 26 -48 c14 -26 30 -48 35 -48 9 0 10 49 2 103 -8
43 -12 45 -41 15z"/>
<path d="M990 610 c0 -38 4 -70 8 -70 5 0 19 23 32 51 l24 51 -24 19 c-14 10
-28 19 -32 19 -5 0 -8 -31 -8 -70z"/>
<path d="M1150 335 c-19 -22 -4 -45 28 -45 33 0 57 22 48 45 -7 19 -60 20 -76
0z"/>
<path d="M790 856 c0 -10 9 -16 21 -16 24 0 21 23 -4 28 -10 2 -17 -3 -17 -12z"/>
<path d="M1166 878 c-6 -19 -15 -28 -30 -29 -21 0 -21 0 2 -11 12 -6 22 -20
23 -32 0 -19 1 -19 8 -2 4 10 18 24 32 32 23 13 23 13 2 14 -16 0 -23 7 -25
28 l-4 27 -8 -27z"/>
<path d="M950 1886 c0 -2 8 -10 18 -17 15 -13 16 -12 3 4 -13 16 -21 21 -21
13z"/>
</g>
</svg>
