<?xml version="1.0" standalone="no"?>
<!DOCTYPE svg PUBLIC "-//W3C//DTD SVG 20010904//EN"
 "http://www.w3.org/TR/2001/REC-SVG-20010904/DTD/svg10.dtd">
<svg version="1.0" xmlns="http://www.w3.org/2000/svg"
 width="1498.000000pt" height="1606.000000pt" viewBox="0 0 1498.000000 1606.000000"
 preserveAspectRatio="xMidYMid meet">

<g transform="translate(0.000000,1606.000000) scale(0.100000,-0.100000)"
fill="#000000" stroke="none">
<path d="M7475 16024 c-72 -12 -154 -38 -224 -71 -143 -68 -277 -229 -310
-373 -26 -112 -3 -264 56 -371 2 -4 -47 -10 -109 -13 -150 -10 -469 -50 -643
-81 -77 -14 -178 -33 -225 -41 -349 -63 -938 -242 -1350 -412 -1748 -720
-3197 -2125 -3986 -3864 -588 -1297 -804 -2744 -623 -4186 151 -1209 619
-2419 1322 -3416 266 -378 499 -656 830 -990 474 -478 967 -862 1538 -1197
967 -566 2051 -906 3169 -994 253 -20 915 -20 1155 0 897 74 1754 300 2542
668 1085 508 2021 1256 2767 2211 435 558 808 1211 1073 1881 274 691 446
1433 509 2190 19 238 19 1036 -1 1285 -68 852 -285 1703 -635 2490 -697 1568
-1910 2860 -3425 3650 -641 334 -1383 587 -2100 714 -197 35 -567 86 -625 86
-35 0 -35 0 -11 48 151 296 -23 648 -374 757 -80 25 -249 40 -320 29z m283
-80 c132 -38 267 -132 331 -232 93 -146 97 -334 8 -477 -75 -122 -180 -198
-337 -245 -94 -28 -254 -31 -346 -6 -312 83 -485 346 -403 612 59 192 237 329
474 368 54 8 214 -3 273 -20z m-89 -1119 c6 -44 13 -159 15 -255 10 -329 36
-488 117 -724 27 -78 106 -229 146 -275 77 -91 198 -121 409 -102 162 15 203
42 310 204 66 99 112 189 157 307 42 111 43 105 -3 146 -163 148 -130 399 64
484 65 29 146 29 215 0 64 -28 133 -102 155 -167 52 -152 -24 -322 -165 -368
l-48 -16 -5 -62 c-9 -100 -40 -845 -56 -1367 -6 -173 -13 -554 -17 -847 l-6
-532 -101 -54 c-142 -76 -176 -93 -285 -138 -130 -55 -312 -115 -391 -129 -36
-6 -100 -20 -143 -31 -184 -45 -531 -50 -752 -10 -297 52 -588 165 -883 340
l-119 71 -6 173 c-4 94 -7 267 -7 382 0 386 -25 1045 -65 1765 -14 239 -25
444 -25 455 0 17 -11 25 -54 38 -62 20 -138 82 -166 136 -42 83 -42 199 0 281
28 54 99 115 160 135 147 49 310 -37 355 -187 32 -109 9 -201 -72 -289 l-54
-58 25 -73 c57 -169 91 -243 168 -366 72 -115 107 -153 173 -187 53 -26 66
-29 204 -33 144 -4 149 -3 200 22 84 43 125 88 182 199 118 233 179 579 179
1021 0 67 3 137 6 156 l6 35 83 0 84 0 10 -80z m-2109 -435 l0 -59 -72 -21
c-723 -210 -1475 -579 -2098 -1029 -998 -722 -1780 -1679 -2285 -2796 -277
-611 -472 -1300 -554 -1960 -73 -579 -73 -1210 0 -1790 154 -1230 643 -2402
1418 -3395 333 -427 774 -868 1201 -1201 994 -775 2161 -1263 3396 -1419 572
-72 1212 -72 1789 1 797 100 1606 354 2324 731 634 332 1199 748 1705 1254
1098 1099 1792 2518 1986 4059 68 546 68 1187 -1 1730 -37 296 -130 762 -199
1002 -268 929 -673 1721 -1258 2461 -313 396 -728 811 -1124 1124 -383 302
-773 553 -1188 762 -262 132 -587 272 -790 341 l-95 32 -3 61 c-2 34 -1 62 1
62 10 0 190 -65 329 -118 671 -259 1379 -679 1950 -1156 317 -265 639 -587
903 -903 856 -1024 1408 -2281 1580 -3596 45 -347 58 -546 58 -937 0 -379 -12
-583 -54 -915 -84 -668 -285 -1382 -563 -1995 -559 -1232 -1461 -2285 -2593
-3026 -998 -653 -2135 -1036 -3353 -1129 -259 -20 -770 -20 -1032 0 -971 74
-1851 322 -2723 768 -975 498 -1850 1251 -2502 2154 -479 664 -827 1380 -1068
2201 -79 268 -176 745 -214 1057 -70 555 -69 1209 0 1765 114 914 419 1829
872 2620 747 1304 1875 2332 3233 2948 282 128 619 255 879 332 72 21 133 39
138 39 4 1 7 -26 7 -59z m633 -3242 c155 -106 375 -227 535 -294 l93 -38 -6
-96 c-3 -52 -10 -225 -15 -385 -6 -159 -12 -346 -15 -415 -3 -69 -14 -368 -25
-665 -11 -297 -27 -709 -35 -915 -8 -206 -20 -516 -27 -687 -6 -172 -14 -313
-18 -313 -3 0 -28 34 -55 76 -77 117 -188 217 -299 269 -131 62 -221 80 -391
80 -254 -1 -449 -68 -625 -216 -66 -55 -168 -181 -223 -273 -160 -275 -226
-713 -162 -1081 97 -555 496 -877 1055 -851 261 11 451 92 603 256 35 38 67
67 71 63 3 -3 6 -75 6 -160 l0 -153 194 0 c107 0 201 3 209 6 13 5 15 85 16
589 1 321 5 748 11 947 5 200 18 788 29 1308 22 1014 69 2491 80 2502 3 4 35
1 71 -7 121 -26 367 -38 505 -26 69 6 131 11 139 11 11 0 12 -56 10 -307 -2
-170 -6 -542 -8 -828 -3 -286 -10 -682 -15 -880 -6 -198 -17 -718 -25 -1155
-21 -1094 -28 -1373 -48 -2055 l-3 -90 45 -7 c82 -12 360 -21 361 -12 0 5 4
73 8 152 5 79 11 146 15 149 4 4 14 -4 23 -18 38 -54 132 -144 200 -189 147
-98 310 -142 533 -143 264 -1 450 55 625 188 205 157 334 399 381 717 25 170
15 472 -20 623 -32 136 -82 267 -140 365 -47 80 -166 223 -236 283 -257 220
-727 279 -1019 127 -93 -49 -200 -144 -261 -233 -25 -37 -49 -67 -54 -67 -8 0
-3 1039 9 1910 1 118 4 485 6 815 1 330 4 632 7 671 l4 71 71 22 c161 52 428
173 601 274 83 48 70 50 281 -55 673 -336 1226 -847 1594 -1472 250 -424 410
-933 475 -1511 21 -190 16 -859 -7 -1005 -19 -116 -51 -238 -67 -254 -5 -5
-10 -22 -10 -37 0 -15 -4 -30 -9 -33 -5 -3 -16 -29 -26 -58 -37 -116 -178
-343 -315 -508 -149 -178 -470 -480 -512 -480 -11 0 -10 11 43 345 50 320 59
404 59 545 0 154 -17 256 -95 570 -66 267 -82 352 -131 710 -33 238 -37 475
-11 610 19 94 73 212 181 395 69 115 80 159 50 189 -33 33 -67 19 -104 -44
-184 -314 -216 -383 -246 -530 -23 -107 -26 -430 -6 -565 76 -508 86 -565 147
-805 87 -348 96 -400 96 -566 0 -159 -5 -207 -62 -549 -78 -465 -70 -557 80
-923 28 -67 58 -152 66 -188 l15 -67 -37 -46 c-56 -68 -298 -311 -311 -311
-17 0 -20 -23 -32 -215 -6 -99 -15 -227 -20 -285 -6 -58 -13 -136 -16 -175 -8
-93 -27 -157 -85 -293 -34 -80 -53 -142 -64 -209 -9 -53 -18 -101 -22 -107 -4
-6 -8 -132 -10 -281 -4 -421 -7 -493 -20 -506 -21 -21 -677 -108 -944 -125
-57 -4 -108 -10 -114 -14 -12 -10 -8 -220 4 -220 5 0 38 20 75 45 111 74 269
114 453 115 105 0 173 -12 247 -45 207 -92 231 -360 49 -542 -99 -99 -253
-158 -440 -170 -121 -7 -203 6 -287 48 -32 16 -62 26 -66 24 -5 -3 -6 -23 -3
-44 6 -47 2 -49 -122 -53 l-79 -3 -7 45 c-11 75 -40 762 -47 1125 l-7 340 -40
-3 c-22 -2 -42 -5 -44 -8 -2 -2 1 -151 6 -331 6 -181 8 -330 6 -333 -12 -14
-424 -23 -1085 -24 l-748 -1 -1 -105 c-1 -58 -4 -244 -8 -415 l-6 -310 -104 2
c-57 1 -105 4 -107 6 -2 2 0 179 6 393 5 214 10 552 10 750 0 394 3 374 -56
374 l-24 0 0 -137 c0 -76 -3 -229 -7 -340 l-6 -203 -51 5 c-28 3 -127 10 -221
16 -93 5 -235 17 -315 25 -202 20 -674 84 -682 92 -4 4 -21 63 -39 132 -31
120 -32 137 -40 395 -9 333 -24 427 -91 575 -65 143 -75 206 -87 545 -6 171
-14 342 -18 382 l-6 72 -54 36 c-57 38 -191 167 -255 245 l-36 45 12 55 c8 30
33 105 56 165 162 419 167 472 83 995 -36 228 -46 319 -50 456 -7 203 2 269
82 604 61 253 69 299 121 665 33 228 38 284 38 455 0 140 -5 220 -16 282 -25
131 -47 181 -213 481 -20 37 -46 72 -56 78 -48 25 -87 -29 -65 -92 7 -19 30
-65 53 -104 55 -95 138 -262 151 -305 38 -126 43 -386 12 -628 -49 -371 -74
-522 -121 -723 -95 -407 -94 -399 -93 -644 1 -204 3 -237 38 -450 42 -262 61
-413 53 -421 -19 -20 -354 298 -481 456 -206 259 -325 506 -378 785 -18 96
-21 161 -25 515 -4 367 -3 423 17 600 71 647 230 1164 497 1615 352 594 902
1102 1535 1418 153 77 382 176 406 177 7 0 41 -19 75 -42z m-64 -3768 c124
-30 211 -80 306 -176 115 -115 178 -231 212 -387 20 -98 12 -603 -12 -717 -50
-237 -228 -425 -460 -485 -90 -24 -279 -22 -380 4 -253 66 -426 235 -508 496
-69 221 -61 552 19 795 61 183 200 354 347 424 138 67 317 84 476 46z m3053
-84 c215 -69 370 -233 454 -478 40 -118 57 -271 51 -443 -8 -193 -32 -298 -98
-434 -43 -89 -63 -117 -137 -191 -72 -72 -102 -95 -172 -128 -120 -57 -221
-76 -379 -69 -195 8 -321 59 -442 182 -70 71 -81 86 -118 162 -56 112 -63 157
-68 420 -7 362 16 511 104 663 51 88 181 217 264 263 110 61 190 78 354 73 88
-3 158 -10 187 -20z m-3272 -5181 c63 -8 138 -20 165 -27 l50 -13 3 -59 c2
-46 0 -57 -11 -53 -143 55 -180 61 -352 62 -166 0 -171 -1 -230 -28 -112 -52
-158 -116 -156 -219 1 -69 23 -118 78 -169 51 -48 75 -62 163 -94 99 -36 308
-47 408 -21 35 9 68 16 73 16 6 0 9 -23 7 -52 -3 -47 -5 -52 -33 -61 -16 -6
-111 -11 -210 -11 -156 -1 -191 2 -265 22 -185 49 -330 145 -395 264 -58 103
-31 257 56 332 128 109 358 149 649 111z m2251 -97 c0 -24 6 -182 13 -353 8
-173 10 -314 5 -319 -5 -5 -53 -10 -106 -10 l-98 -1 -3 48 c-3 38 -7 47 -22
47 -10 0 -22 -5 -25 -10 -12 -20 -83 -59 -146 -81 -50 -17 -95 -22 -209 -26
-163 -5 -258 9 -345 52 -54 27 -115 75 -115 91 0 5 -5 15 -12 22 -31 31 -38
88 -38 330 l0 242 105 0 105 0 0 -227 c0 -204 2 -232 20 -268 35 -73 78 -107
166 -130 179 -47 407 11 475 121 24 39 24 41 21 267 -1 125 0 232 3 237 4 6
51 10 106 10 l99 0 1 -42z"/>
<path d="M7448 15884 c-132 -31 -251 -125 -308 -241 -43 -86 -53 -199 -25
-284 103 -319 544 -422 799 -188 218 200 173 526 -92 667 -110 59 -251 76
-374 46z m319 -84 c142 -70 224 -190 224 -328 0 -77 -13 -121 -58 -189 -150
-227 -532 -240 -697 -23 -57 74 -89 170 -81 240 13 118 104 238 231 304 l69
36 122 -3 c115 -4 127 -6 190 -37z"/>
<path d="M7486 12785 c-143 -40 -263 -134 -319 -252 -30 -63 -32 -75 -32 -173
0 -99 2 -110 32 -171 67 -135 216 -237 383 -261 165 -25 334 28 450 138 252
240 128 624 -230 719 -68 18 -218 18 -284 0z m280 -100 c69 -20 163 -84 202
-139 45 -63 63 -120 63 -200 0 -57 -6 -81 -31 -132 -140 -284 -601 -283 -741
1 -29 59 -31 70 -27 147 4 99 28 157 94 223 108 108 275 146 440 100z"/>
<path d="M7083 4783 c-239 -188 -293 -234 -293 -247 0 -8 25 -58 56 -112 80
-142 314 -574 362 -670 50 -99 64 -114 106 -114 61 0 60 -8 47 418 -26 809
-25 803 -51 824 -44 36 -69 25 -227 -99z"/>
<path d="M7510 4887 l-25 -13 0 -609 0 -610 26 -9 c60 -21 66 -13 201 256 70
139 173 338 228 442 l102 189 -24 22 c-61 59 -433 336 -456 341 -15 2 -38 -1
-52 -9z"/>
<path d="M9111 2040 c-99 -21 -170 -52 -232 -102 -9 -7 -28 -31 -43 -52 -23
-34 -26 -48 -26 -125 0 -115 12 -152 61 -194 133 -114 435 -99 577 28 81 73
115 177 92 280 -15 67 -49 108 -116 141 -49 24 -70 28 -163 30 -58 2 -126 -1
-150 -6z"/>
<path d="M5800 6551 c-44 -23 -76 -92 -66 -144 15 -80 97 -157 175 -165 63 -6
92 2 130 34 39 33 54 84 40 140 -30 118 -177 190 -279 135z"/>
<path d="M9012 6736 c-15 -20 -20 -48 -26 -133 -3 -59 -9 -141 -13 -180 l-6
-73 -154 0 c-150 0 -155 -1 -178 -25 -29 -28 -31 -43 -11 -71 13 -17 31 -20
173 -24 l158 -5 -3 -45 c-2 -25 -10 -103 -17 -175 -15 -130 -15 -130 7 -148
26 -22 65 -16 89 13 16 18 25 78 47 285 l7 70 150 2 c173 3 187 6 215 35 24
26 26 51 3 73 -14 15 -38 16 -179 14 -90 -2 -166 0 -170 4 -4 3 -1 90 5 192
14 207 13 215 -44 215 -24 0 -39 -7 -53 -24z"/>
</g>
</svg>
